<svg xmlns="http://www.w3.org/2000/svg" width="22.04" height="22.024" viewBox="0 0 22.04 22.024">
  <g id="_360_Degree_Feedback" data-name="360 Degree Feedback" transform="translate(-10.96 -6.95)" style="isolation: isolate">
    <g id="Layer_1" data-name="Layer 1" transform="translate(10.96 7.952)">
      <path id="Path_5631" data-name="Path 5631" d="M45.035,38.12a2.587,2.587,0,0,0-2.2,1.2,2.549,2.549,0,0,1,.406,1.379v1.821h4.4V40.7a2.6,2.6,0,0,0-2.612-2.584" transform="translate(-31.678 -27.558)" fill="#0aac4b"/>
      <path id="Path_5632" data-name="Path 5632" d="M45.052,23.26a2.6,2.6,0,0,0-2.2,1.215,2.608,2.608,0,0,1,0,2.773,2.6,2.6,0,1,0,2.2-3.988" transform="translate(-31.685 -17.9)" fill="#0aac4b"/>
      <path id="Path_5633" data-name="Path 5633" d="M31.721,38.12A2.58,2.58,0,0,0,29.13,40.7v1.821h4.4V40.7a2.573,2.573,0,0,1,.4-1.379,2.612,2.612,0,0,0-2.209-1.2" transform="translate(-22.768 -27.558)" fill="#1e9cd8"/>
      <path id="Path_5634" data-name="Path 5634" d="M42.106,41.56a2.573,2.573,0,0,0-.4,1.379V44.76h.8V42.939a2.549,2.549,0,0,0-.4-1.379" transform="translate(-30.944 -29.793)" fill="#0d7452"/>
      <path id="Path_5635" data-name="Path 5635" d="M31.733,23.26a2.6,2.6,0,1,0,2.2,3.988,2.608,2.608,0,0,1,0-2.773,2.6,2.6,0,0,0-2.2-1.215" transform="translate(-22.77 -17.9)" fill="#1e9cd8"/>
      <path id="Path_5636" data-name="Path 5636" d="M42.109,26.73a2.608,2.608,0,0,0,0,2.773,2.608,2.608,0,0,0,0-2.773" transform="translate(-30.944 -20.155)" fill="#0d7452"/>
      <path id="Path_5637" data-name="Path 5637" d="M15.849,23.892a10,10,0,1,1,4.2,3.291" transform="translate(-12.866 -7.952)" fill="none" stroke="#67be61" stroke-miterlimit="10" stroke-width="2" style="mix-blend-mode: multiply;isolation: isolate"/>
      <path id="Path_5638" data-name="Path 5638" d="M10.96,48.88l4.233-2.57.109,4.951Z" transform="translate(-10.96 -32.88)" fill="#1e9cd8" style="mix-blend-mode: multiply;isolation: isolate"/>
    </g>
  </g>
</svg>
