<svg xmlns="http://www.w3.org/2000/svg" width="28" height="20" viewBox="0 0 28 20">
  <g id="Coding_Assessment" data-name="Coding Assessment" transform="translate(-4.42 -16.89)">
    <path id="Path_5648" data-name="Path 5648" d="M14.28,36.89v-19a1,1,0,0,1,1-1H35.193a1,1,0,0,1,1,1v19H14.28" transform="translate(-6.815)" fill="#1e9cd8"/>
    <rect id="Rectangle_589" data-name="Rectangle 589" width="19.877" height="14.217" transform="translate(8.481 18.922)" fill="#fff"/>
    <path id="Path_5649" data-name="Path 5649" d="M7.419,76.07h-3V78.1h3V76.07m25,0h-3V78.1h3V76.07" transform="translate(0 -41.209)" fill="#0aac4b"/>
    <path id="Path_5650" data-name="Path 5650" d="M36.189,76.07H14.28V78.1H36.189V76.07" transform="translate(-6.815 -41.209)" fill="#046b39"/>
    <path id="Path_5651" data-name="Path 5651" d="M26.206,40.943l4.565-1.773v1.183l-3.4,1.146,3.4,1.171V43.84L26.2,42.064Z" transform="translate(-15.174 -15.534)" fill="#0aac4b"/>
    <path id="Path_5652" data-name="Path 5652" d="M46.278,35.16h1.235l-3.53,8.03H42.76Z" transform="translate(-26.714 -12.768)" fill="#0aac4b"/>
    <path id="Path_5653" data-name="Path 5653" d="M64.434,42.064,59.86,43.84V42.669l3.4-1.171-3.4-1.146V39.17l4.574,1.773Z" transform="translate(-38.626 -15.534)" fill="#0aac4b"/>
  </g>
</svg>
