<svg xmlns="http://www.w3.org/2000/svg" viewBox="0 0 20 20"><path d="M.7 8.4v10.9h1.6v-3.1h1.6v3.1h9.3V8.4H.7m3.1 6.2H2.3v-1.5h1.6v1.5m-.1-3.1H2.3V10h1.6v1.5m3 6.2H5.4v-1.5h1.5v1.5m0-3.1H5.4V13h1.5v1.6m0-3.1H5.4V10h1.5v1.5m4.7 6.2h-1.5v-1.5h1.6l-.1 1.5m0-3.1H10V13h1.6v1.6m0-3.1H10V10h1.6v1.5" fill="#009de0"/><path d="M16.2 17.7v-1.5h1.6v1.5h-1.6m-3.1-3.1v-1.5h1.5v1.5h-1.5m3.1 0v-1.5h1.6v1.5h-1.6m-3.1-3.1V10h1.5v1.5h-1.5m3.1 0V10h1.6v1.5h-1.6m-6.2-3V7h1.6v1.5H10m3.1 0V7h1.5v1.5h-1.5m3.1 0V7h1.6v1.5h-1.6M9.9 5.4V3.8h1.6v1.5H9.9m3.2.1V3.8h1.5v1.5h-1.5m3.1.1V3.8h1.6v1.5h-1.6M17.7.7h-3.1v1.5H8.4v6.2h4.7v7.7h1.5v3.1h4.7v-17h-1.5L17.7.7" fill="#0aac4b"/><path d="M10 16.2h1.6v1.6H10v-1.6m0-3.1h1.6v1.5H10v-1.5m0-3.2h1.6v1.6H10V9.9m3.1-1.5H8.4v10.9h4.7V8.4" fill="#02693f"/></svg>