<svg version="1.1" id="Layer_1" xmlns="http://www.w3.org/2000/svg" x="0" y="0" viewBox="0 0 20 20" xml:space="preserve"><style>.st0{fill:#009de0}</style><g id="Tools-Pink" transform="translate(-3.998 -4)"><path id="Path_5618" class="st0" d="M22.3 18.5l-6.8-6.8-1.1 1.1L9.5 8l.8-.8L6.5 5 5 6.5l2.3 3.8.7-.8 4.9 4.9-1.1 1.1 6.8 6.8c.5.5 1.2.8 1.9.8 1.5 0 2.6-1.2 2.7-2.6-.1-.8-.4-1.5-.9-2"/><path id="Path_5619" d="M12.5 10.9l-1.6 1.6 1.8 1.8-1.2 1.2 2.6 2.6 4-4-2.6-2.6-1.2 1.2-1.8-1.8" fill="#02693f"/><path id="Path_5620" d="M12.9 14.4l-1.8-1.8-5.3 5.3c-1.2 1.2-1.2 3.1-.1 4.3 1.2 1.2 3.1 1.2 4.3.1l.1-.1 4.1-4.1-2.5-2.5 1.2-1.2zM8 21.5c-.8 0-1.5-.7-1.5-1.5s.7-1.5 1.5-1.5 1.5.7 1.5 1.5c0 .9-.7 1.5-1.5 1.5zm14.6-14l-3 3c-.6.6-1.5.6-2.1 0-.6-.6-.6-1.5 0-2.1l3-3c-.6-.3-1.3-.4-2-.4C16 5 14 7 14 9.5v.2l-1.4 1.4 1.8 1.8 1.1-1.1 2.5 2.5.3-.3h.2C21 14 23 12 23 9.5c0-.7-.1-1.4-.4-2z" fill="#0aac4b"/><ellipse id="Ellipse_23" class="st0" cx="18.5" cy="9.7" rx="1.8" ry="1.4"/></g></svg>