<svg xmlns="http://www.w3.org/2000/svg" xmlns:xlink="http://www.w3.org/1999/xlink" width="20" height="20" viewBox="0 0 20 20">
  <defs>
    <clipPath id="clip-Resources-Library_">
      <rect width="20" height="20"/>
    </clipPath>
  </defs>
  <g id="Resources-Library_" data-name="Resources-Library " clip-path="url(#clip-Resources-Library_)">
    <g id="Group_1066" data-name="Group 1066" transform="translate(-3.025 -2.287)">
      <path id="Shape" d="M20.625,27.254a.847.847,0,0,1-.845.844H8.17a3.167,3.167,0,1,1,0-6.333H19.781a.844.844,0,0,1,0,1.689H8.17a1.478,1.478,0,1,0,0,2.956H19.781A.847.847,0,0,1,20.625,27.254Z" transform="translate(0 -6.311)" fill="#1b9bd7"/>
      <path id="Shape-2" d="M20.411,27.251H9.011a1.478,1.478,0,1,1,0-2.956h11.4c-.356,0-.633.663-.633,1.478S20.061,27.251,20.411,27.251Z" transform="translate(-0.842 -7.153)" fill="#d4d8df"/>
      <path id="Shape-3" d="M21.256,15.444a3.167,3.167,0,0,1-3.166,3.167H6.478a.845.845,0,0,1,0-1.689H18.088a1.478,1.478,0,0,0,0-2.956H6.476a.844.844,0,1,1,0-1.689H18.088a3.167,3.167,0,0,1,3.167,3.167Z" transform="translate(-0.21 -3.156)" fill="#03ab4b"/>
      <path id="Shape-4" d="M20.095,16.285a1.478,1.478,0,0,1-1.478,1.478H7.217c.356,0,.633-.663.633-1.478s-.278-1.478-.633-1.478h11.4A1.478,1.478,0,0,1,20.095,16.285Z" transform="translate(-0.737 -3.997)" fill="#d4d8df"/>
      <path id="Shape-5" d="M20.625,8.277a.847.847,0,0,1-.845.844H8.17a3.167,3.167,0,0,1,0-6.334H19.782a.845.845,0,1,1,0,1.689H8.17a1.478,1.478,0,0,0,0,2.955H19.782A.847.847,0,0,1,20.625,8.277Z" transform="translate(0 0)" fill="#1b9bd7"/>
      <path id="Shape-6" d="M20.411,8.273H9.011a1.478,1.478,0,1,1,0-2.955h11.4c-.356,0-.633.663-.633,1.478S20.061,8.273,20.411,8.273Z" transform="translate(-0.842 -0.842)" fill="#d4d8df"/>
    </g>
  </g>
</svg>
