<svg version="1.1" id="Layer_1" xmlns="http://www.w3.org/2000/svg" x="0" y="0" viewBox="0 0 20 20" xml:space="preserve"><style>.st2{fill:#fff}</style><g id="Talent_Assessment" transform="translate(-15.36 -9.494)"><g id="Layer_1_1_" transform="translate(15.36 9.494)"><path id="Path_5641" d="M3.8 13.2v4.6h11c1 0 1.9-.8 1.9-1.9v-3.2l1.5-1-1.5-3V7.4c0-4.1-3.3-7.4-7.5-7.4-4.1 0-7.4 3.4-7.4 7.5 0 1.9.7 3.7 2 5v.7z" fill="#0aac4b"/><path id="Rectangle_588" fill="#1e9cd8" d="M3.7 15.9h7V20h-7z"/><path id="Path_5642" class="st2" d="M8.3 11c-.2-.1-.1-.4-.4-.4-.3 0-.6 0-.6.5-.4-.1-.9-.2-1.2-.5 0-.2.2-.3.1-.6-.3-.2-.5-.4-.8-.1-.3-.3-.5-.7-.6-1.1 0-.1.1-.1.1-.2.1-.1.3-.1.3-.2v-.5c0-.1-.1-.1-.2-.1-.2 0-.3-.2-.2-.4.1-.3.2-.6.4-1 .2.1.4.2.5.1.1 0 .3-.1.3-.3v-.5c.3-.2.7-.4 1-.5.1 0 .2 0 .2.1s.1.2.2.3h.5l.1-.1c0-.1.1-.2.1-.3.4 0 .8.2 1.1.4v.2c0 .1-.1.3-.1.3.1.1.2.3.4.4h.1c.1 0 .2-.1.4-.2l.6 1.2c-.5 0-.5.4-.5.7 0 .2.3.2.4.3 0 .4-.2.8-.4 1.1-.1 0-.1.1-.2 0-.1 0-.3 0-.4.1v.1c-.1.1-.2.1-.2.2l.2.4c-.4.3-.8.5-1.2.6zM9 8.1c0-.7-.6-1.3-1.3-1.3s-1.4.6-1.4 1.3c0 .7.6 1.3 1.3 1.3.8 0 1.4-.6 1.4-1.3z"/><path id="Path_5643" class="st2" d="M11.7 6.4h-.9c0-.2 0-.4-.2-.5-.2-.1-.4-.1-.6.1l-.5-.9c.2-.1.3-.2.3-.5s-.1-.4-.3-.5l.4-.8h.1c.3.3.5.1.7-.1.1 0 .1-.2.1-.2 0-.1 0-.2.2-.2h.8c0 .3 0 .4.2.6.2.1.4.1.6-.1l.4.8c-.2.1-.4.2-.4.5s.2.4.4.5l-.5.8c-.2-.1-.4-.2-.6-.1-.1.1-.2.3-.2.6zm-.4-2.5c-.4 0-.7.3-.7.7s.3.7.7.7c.4 0 .7-.3.7-.7-.1-.4-.4-.7-.7-.7z"/></g></g></svg>